# xmcd CD Database Entry
#
# Track frame offsets:
# 182
# 2452
# 15267
# 18895
# 41002
# 47042
# 72607
# 75645
# 89495
# 98782
# 116110
# 121782
# 143277
# 168202
#
# Disc length: 2492 seconds
#
# Revision: 2
# Processed by: cddbd v1.4b41PL1 Copyright (c) Steve Scherf et al.
# Submitted via: tcd 2.0b
#
DISCID=9f09ba0e
DTITLE=Casino Royale - Dainamaita
DYEAR=1900
DGENRE=
TTITLE0=De Maestro E ...
TTITLE1=Dainamaita
TTITLE2=Dainadaba
TTITLE3=Treno Per Babilon
TTITLE4=Pardo Dietro Lo Specchio
TTITLE5=Re Senza Trono
TTITLE6=Quando Si Perde Il Controllo
TTITLE7=KZK-
TTITLE8=J.S.S.
TTITLE9=Purple Haze
TTITLE10=Ta-Shot
TTITLE11=*Justice*
TTITLE12=Metallo Giallo
TTITLE13=Cielo
EXTD=
EXTT0=
EXTT1=
EXTT2=
EXTT3=
EXTT4=
EXTT5=
EXTT6=
EXTT7=
EXTT8=
EXTT9=
EXTT10=
EXTT11=
EXTT12=
EXTT13=
PLAYORDER=
